<?xml version="1.0" encoding="UTF-8" standalone="no"?>
<!DOCTYPE svg PUBLIC "-//W3C//DTD SVG 1.1//EN" "http://www.w3.org/Graphics/SVG/1.1/DTD/svg11.dtd">
<svg width="100%" height="100%" viewBox="0 0 767 821" version="1.1" xmlns="http://www.w3.org/2000/svg" xmlns:xlink="http://www.w3.org/1999/xlink" xml:space="preserve" xmlns:serif="http://www.serif.com/" style="fill-rule:evenodd;clip-rule:evenodd;stroke-linejoin:round;stroke-miterlimit:2;">
    <g transform="matrix(4.16667,0,0,4.16667,0,0)">
        <path d="M110.4,0.733L147.2,0.733L147.2,25.267L159.467,25.267L159.467,37.533L134.934,37.533L134.934,62.067L122.666,62.067L122.666,25.267L134.934,25.267L134.934,13L122.666,13L122.666,25.267L110.4,25.267L110.4,0.733Z" style="fill:rgb(3,4,5);"/>
        <path d="M122.666,25.267L122.666,13L134.934,13L134.934,25.267L122.666,25.267Z" style="fill:rgb(78,66,24);"/>
        <path d="M147.2,37.533L147.2,111.133L134.934,111.133L134.934,123.399L122.666,123.399L122.666,135.667L98.133,135.667L98.133,147.933L12.266,147.933L12.266,135.667L73.6,135.667L73.6,123.399L98.133,123.399L98.133,111.133L110.4,111.133L110.4,98.866L122.666,98.866L122.666,62.067L134.934,62.067L134.934,37.533L147.2,37.533Z" style="fill:rgb(250,239,64);"/>
        <path d="M147.2,37.533L159.467,37.533L159.467,123.399L147.2,123.399L147.2,135.667L134.934,135.667L134.934,147.933L122.666,147.933L122.666,160.2L110.4,160.2L110.4,172.466L24.533,172.466L24.533,160.2L12.266,160.2L12.266,147.933L98.133,147.933L98.133,135.667L122.666,135.667L122.666,123.399L134.934,123.399L134.934,111.133L147.2,111.133L147.2,37.533Z" style="fill:rgb(248,206,42);"/>
        <rect x="159.467" y="37.533" width="12.266" height="12.267" style="fill:rgb(3,4,5);"/>
        <path d="M159.467,49.8L171.733,49.8L171.733,135.667L159.467,135.667L159.467,160.2L147.2,160.2L147.2,172.466L122.666,172.466L122.666,184.733L49.066,184.733L49.066,172.466L110.4,172.466L110.4,160.2L122.666,160.2L122.666,147.933L134.934,147.933L134.934,135.667L147.2,135.667L147.2,123.399L159.467,123.399L159.467,49.8Z" style="fill:rgb(224,186,36);"/>
        <rect x="171.733" y="49.8" width="12.267" height="85.867" style="fill:rgb(3,4,5);"/>
        <rect x="110.4" y="62.067" width="12.266" height="36.799" style="fill:rgb(3,4,5);"/>
        <rect x="98.133" y="98.866" width="12.267" height="12.267" style="fill:rgb(3,4,5);"/>
        <rect x="73.6" y="111.133" width="24.533" height="12.266" style="fill:rgb(3,4,5);"/>
        <path d="M0,123.399L73.6,123.399L73.6,135.667L12.266,135.667L12.266,160.2L0,160.2L0,123.399Z" style="fill:rgb(3,4,5);"/>
        <rect x="159.467" y="135.667" width="12.266" height="24.533" style="fill:rgb(3,4,5);"/>
        <rect x="12.266" y="160.2" width="12.267" height="12.266" style="fill:rgb(3,4,5);"/>
        <rect x="147.2" y="160.2" width="12.267" height="12.266" style="fill:rgb(3,4,5);"/>
        <rect x="24.533" y="172.466" width="24.533" height="12.267" style="fill:rgb(3,4,5);"/>
        <rect x="122.666" y="172.466" width="24.534" height="12.267" style="fill:rgb(3,4,5);"/>
        <rect x="49.066" y="184.733" width="73.6" height="12.267" style="fill:rgb(3,4,5);"/>
    </g>
</svg>
