<svg width="100%" height="100%" viewBox="0 0 120 120" version="1.1" xmlns="http://www.w3.org/2000/svg" xmlns:xlink="http://www.w3.org/1999/xlink" xml:space="preserve" xmlns:serif="http://www.serif.com/" style="fill-rule:evenodd;clip-rule:evenodd;stroke-linejoin:round;stroke-miterlimit:2;">
    <rect id="rect3" x="0" y="-0" width="120" height="120" style="fill:rgb(52,55,60);"/>
    <path id="path7" d="M59.565,37.653C53.452,37.653 48.658,33.348 48.658,27.857C48.658,22.475 53.572,18.063 59.565,18.063C65.557,18.063 70.351,22.475 70.351,27.857C70.351,33.348 65.557,37.653 59.565,37.653" style="fill:white;fill-rule:nonzero;"/>
    <path id="path9" d="M59.565,44.157C65.916,44.157 68.912,48.14 68.912,56.429L68.912,90.549C68.912,98.838 66.038,102.929 59.565,102.929C53.094,102.929 50.096,98.838 50.096,90.549L50.096,56.429C50.096,48.14 53.093,44.157 59.565,44.157" style="fill:white;fill-rule:nonzero;"/>
    <path id="path11" d="M59.564,37.653C53.451,37.653 48.657,33.348 48.657,27.858C48.657,22.476 53.572,18.063 59.564,18.063C65.556,18.063 70.35,22.476 70.35,27.858C70.35,33.348 65.556,37.653 59.564,37.653" style="fill:rgb(27,183,110);fill-rule:nonzero;"/>
</svg>
